<svg xmlns="http://www.w3.org/2000/svg" viewBox="0 0 800 358.31"><defs><style>.\30 da19507-b767-4956-8159-ecbf32bf29a5{fill:#005f32;}.a73487f2-c887-4731-a933-037b94c9366a{fill:#28b24b;}.f24d3ec3-8de3-4a1e-8ced-cc6de0c8a155{fill:#448462;}.\34 8f9f14b-e11c-4809-bc50-3a8791618035{fill:#27b24b;}</style></defs><title>Asset 1</title><g id="0d89b44e-3cb9-475c-9216-7510afa86f9c" data-name="Layer 2"><g id="73ba5e27-3b6b-4958-a215-5086082e04d5" data-name="Layer 1"><path class="0da19507-b767-4956-8159-ecbf32bf29a5" d="M798.53,357.22a184.44,184.44,0,0,0-19-9.74c-30.9-13.71-63.28-22.71-96.08-30.41-8.14-1.92-16.36-3.55-24.52-5.35-1-.22-2.27-.09-2.24-1.9.09-8.11,0-16.24.07-24.35,0-2.2,3.64-4.74,5.44-3.9,4.8,2.2,10.1,3.65,13.52,8.11,2.94,3.81,6.77,4.31,11.15,3.6,2-.32,4.44.36,5.87-.63,1.6-1.09,1-3.81,1.44-5.82.28-1.48.78-2,2.38-1.82a264,264,0,0,0,33.15,1.22c1,0,2-.09,3.47-.17-3.49-2.54-6.43-4.79-9.49-6.82-1.68-1.11-2-1.82-.39-3.33,3-2.7,5.8-5.54,8.5-8.5,1.36-1.48,2.42-1.61,3.6-.05,3.47,4.56,8.16,5,13.57,5.21,6.39.25,10.61-3.24,15.61-6.14-2.44-1.52-4.6-2.9-6.79-4.25a6.42,6.42,0,0,1-2.16-1.79c-1.33-1.89-1.86-5.11-4-5.4s-4.35,1.56-6.54,2.45c-.26.11-.57.13-.82.25-1.73.95-2.25.36-1.81-1.45,1.1-4.38-.44-8.05-3.36-11.17-2-2.09-4.64-3.29-7-4.8-1.78-1.07-2.74-1.84-.27-3.38a32.19,32.19,0,0,0,7.23-6.46c1.36-1.59,2.49-1.93,3.72,0,2.94,4.55,6.73,4.89,11.69,3.31,3-1,3.6-1.79,3.13-4.83-1-6.55-3.63-12.28-9.23-15.57-4.5-2.64-7.36-5.25-6.23-10.73,0-.1-.22-.25-.59-.64-4.17,6-10.39,7.77-17.28,8.13-1.93.09-2.7-.58-3-2.46-.36-2,.54-4,.07-6.23-1.45,1-2.74,1.74-4,2.64-3.94,2.86-7.63,2.38-11.53-.33-2.28-1.55-2.74-2.84-1.18-5.15,1.11-1.65,1.66-3.65,2.72-5.34C710.53,188,714,183,721.13,182.4c5.08-.45,5.15-.89,3.76-5.8-.61-2.11-.27-3.47,1.56-4.81,2.31-1.7,4.36-3.74,6.73-5.79-8.83-.73-17.22-2-25,3.19-2.31,1.56-4.53,2.83-6,5.34a25.63,25.63,0,0,1-5,6.22c-2.52,2.33-4.06,2.12-6-.8a8.09,8.09,0,0,1-1.29-2.53c-.41-2-1.74-3-3.31-4-2.85-1.77-5.62-3.63-8.75-5.67l14.15-7.13c.54-.25,1.17-.48,1.11-1.12-.09-.83-.85-.5-1.36-.54-4.36-.39-8.75-.73-13.12-1.13-3.85-.32-7.59-1.09-10.29-4.12C664.28,149,659,148,653,148c-2.94,0-5.59.34-8.11,1.94-4.21,2.66-8.7,4.85-13.81,4.83a17.21,17.21,0,0,0-14.26,6.89c-.75,1-2,1.58-2.71,2.53-1.55,2-3.68,2.5-6,2.7s-4.74.38-7.11.66c-5.08.61-7.59,5-11.17,7.77-.16.13-.12.54-.16.82-.3,2.72,3.24,7.43,6,7.83,5.65.8,11.29,1.75,17,2.18a10.58,10.58,0,0,1,7,3.28c1.49,1.46,2.83,3.09,4.19,4.67.65.75,1.18,1.47.11,2.42a28.84,28.84,0,0,1-7.45,5.24c-2.61,1.13-4.63.47-5.57-2.15-.66-1.88-1.37-1.79-2.86-1.14-5.76,2.43-11.47,5-17.38,7.07a27.58,27.58,0,0,0-8.25,4.28c-6.36,5-9,4-10.85-3.87-.22-.86.09-2.2-1-2.51-3.28-.87-6.39-2.61-9.86-2.38-5.14.36-10.3.77-15.36,1.58-2.6.41-2.71-.56-2.83-2.6-.41-7-.34-14.09-2.49-20.92-.5-1.65-1.2-2.13-2.77-1.69a24.81,24.81,0,0,1-7.4.47,3.35,3.35,0,0,1-3.47-2.74c-.73-2.63-1.7-5.21-2.52-7.84-1.71-5.53.34-9.2,5.9-10.76,2.38-.66,4.76-1.31,7.11-2.06a6.24,6.24,0,0,1,4.9.2c6.7,3.17,13.59,5.3,21.09,3.13a2.18,2.18,0,0,1,.57,0c3.19-.17,3.71-.74,3.48-4a35.85,35.85,0,0,0-1.47-8.13c-1.88-6-3-12.46-7-17.58a67,67,0,0,0-31.86-22.57c-1.49-.5-1.87-.13-2.17,1.09-.59,2.38-1.27,4.76-1.74,7.18-.21,1.13-.59,1.68-1.75,1.81-3.12.32-6.18,1.14-9.34.89-1.85-.68-2.33.93-3,1.93-2.87,4.19-6.16,8-9.17,12.09-1.34,1.82-2.7,2.36-4.87,1.43-2.61-1.13-5.38-1.95-8-3.06-2.18-.93-3.75-.47-4.67,1.66-1.39,3.24-4,4.39-7.23,5.3-5.17,1.49-10,2.13-14.7-1.3-1.66-1.22-3.41-.83-5,.42-.82.67-1.57,1.38-2.38,2.06-4.33,3.71-8.37,7.84-14.66,8.15-1.81.09-2.92-.16-3.61-1.88-1-2.38-1.88-4.82-3.08-7.09-1.31-2.47-.77-4.06,1.5-5.46,4.89-3,8-7.54,10.85-12.33,1.25-2.12,1-2.81-1.36-3.55-3.8-1.2-7.57-1.86-11.35.27-1.56.88-3.44,1.22-5,2.09-4.33,2.39-8.56,2.9-12.87-.07a22.18,22.18,0,0,0-3.12-1.43c-5.73-2.77-5.76-2.79-8.2,3-.68,1.64-1.5,2.68-3.49,2.77-4,.16-8,.48-12,.84a2.51,2.51,0,0,1-3-1.91c-.91-2.72-1.77-5.44-2.74-8.15-.77-2.2-.12-3.29,2.12-4a146.92,146.92,0,0,1,17.84-4.13,7.33,7.33,0,0,0,3.92-1.58c5.73-5.53,12.44-10.38,13-19.37a6.87,6.87,0,0,1,.21-.84c.41-1.75,1.47-2.29,3.19-1.84,2.22.55,4.44,1.12,6.67,1.66,4.18,1,5,.66,6.32-3.45a12.25,12.25,0,0,1,5.88-7.4,41.34,41.34,0,0,0,4.52-3c1.15-.86,2-2,1.38-3.44-1.81-4.29-3.09-8.88-6.28-12.44-4.82-5.41-7.93-5.1-11.65,1-.58,1-1.19,1.94-2.44,1.4-4-1.72-8.61-2.27-11.85-5.48-4.33-4.29-9.54-6.48-15.45-7.48a51.74,51.74,0,0,0-6.82-.61c-8-.25-16,1-24-.23-6.91-1.09-7.34-.82-9,5.8-.49,1.88-1.34,2.56-3.26,2a70.31,70.31,0,0,0-8.15-1.61c-4.4-.68-6.48.66-7.3,5.1a29.42,29.42,0,0,1-2.47,6.68,3.61,3.61,0,0,1-3.83,2.31c-4-.11-8-.52-12-.84-2.38-.22-3.66.37-4.15,2.7-.2.93-.48,1.84-.77,2.76a3.28,3.28,0,0,0,1.61,4.13c1.56,1,3.12,1.9,4.73,2.72A3.66,3.66,0,0,1,324.63,77c-.84,6.64-.36,7,5.91,4.94,4-1.34,4.31-1.45,5.92,2.63s4.35,6,8.5,6.54c2,.28,3.33-.09,4.41-1.76,1.72-2.65,3.54-5.21,5.19-7.91s1.82-2.78,4.67-1.07a50,50,0,0,1,5.43,3.7c4.69,3.67,4.85,9,.34,12.94-2.13,1.9-4.43,3.64-6.56,5.55a4.48,4.48,0,0,1-5.51.68c-1.38-.7-2.74-1.36-4.12-2a4.78,4.78,0,0,0-3.31-.68,68.54,68.54,0,0,0-12.71,5.12c-1.39.7-1.36,1.84.2,2.47a48.6,48.6,0,0,0,8.27,2.92c-.32.73-.68,1.52-1,2.29-2.31,5.06-4.53,5.62-9,2.18-1.45-1.11-2.9-2.18-4.44-3.15-5.77-3.58-6.79-3.12-7.06,3.6-.09,2.29-.75,3.45-3.15,3.18-2.91-.32-4.9,1-6.33,3.46-.95,1.65-2,3.26-2.8,5-1.7,3.71-1,5.8,2.67,7.75,4.67,2.53,9.33,3.48,14.81,2,7.46-2,14.71-3.9,20-10a5.9,5.9,0,0,1,4.3-2,71.13,71.13,0,0,0,8-.26c1.38-.2,1.77.48,1.24,1.7a17,17,0,0,1-3.39,4.58c-2.23,2.31-1.93,4.47.88,6a13,13,0,0,0,8,1.83c2-.23,4-.38,6-.66,4.13-.59,4.94,1.14,4.42,5.06a41,41,0,0,1-1.56,5.52A9.53,9.53,0,0,0,374.3,157c1.31,2.08,3.05,2.43,5.14,1.16a12.76,12.76,0,0,0,3.94-4.1c3.42-5.2,2.42-4.35,7.61-1.7a6.93,6.93,0,0,1,4.2,6c.2,2.39.83,4.71,1.26,7.06.59,3.27,1.7,3.81,4.76,2.38,2.5-1.18,5-2.44,7.43-3.71,1.93-1,3-.44,3.63,1.56q1.29,3.94,2.24,8c.8,3.46,1.22,3.74,4.87,3.83A39.13,39.13,0,0,0,430.14,176c1.84-.45,3-.18,3,2.06,0,1.71.43,3.4.59,5.1.18,2.09-.31,3.09-2.67,3.31-8.29.77-16.59.16-24.88.34-2.95.07-5.89.39-8.83.63a17,17,0,0,0-13.46,7.87c-2,2.88-2.65,2.67-4.2-.36-.49-.93-1-1.86-1.44-2.81a3.75,3.75,0,0,0-4.45-2.2c-2.26.43-4.53.75-6.79,1.17a4.7,4.7,0,0,0-2.88,1.12,42,42,0,0,0-5.33,7.43,1.8,1.8,0,0,0,.28,2.38c3.49,2.81,6.12,7.38,11.85,5.87a38.52,38.52,0,0,1,4.26-.48c3-.41,3.6.2,3.51,3.15a4.22,4.22,0,0,1-2.13,3.44c-5.15,3.78-11.15,4.72-17.24,5.48a9.26,9.26,0,0,0-5.3,1.93c-2.07,1.83-4.33,3.44-6.42,5.24-.83.72-2.31,1.29-1.86,2.58s2,1.25,3.2,1.45l.57,0c5.7.61,5.68.61,6.75,6.1.23,1.22,0,2.85,2,3,2.38-1.34,4.62-.89,6.93.34a27.57,27.57,0,0,0,5.24,2.17c1.78.52,2.28,1.45,2.26,3.26-.09,10.11,0,20.24-.05,30.36,0,3,1,6.85-.45,8.57-1.69,2-5.73.74-8.74.77q-34.5.4-68.93,2.65-28.68,1.86-57.27,5.17-20,2.31-39.92,5.43c-16.82,2.63-33.6,5.62-50.24,9.25-1.36.29-2.06.2-2-1.57.09-8.49.07-17,0-25.48,0-1.66.59-2,2.11-2.16,3.9-.36,7.75-1,11.63-1.52a4.46,4.46,0,0,1,3.94,1c3.72,3.3,8.09,5.7,12.25,8.38,1.11.7,2,.95,3,0,4.17-3.81,8.57-3.31,13.08-.66,1.11.65,2.44.83,3.07,2.31,1.95,4.6,3.24,4.67,6.33.72a3.68,3.68,0,0,0,.75-3.46c-.6-2.2-1.2-4.4-1.88-6.57-1.41-4.54-.09-6.41,4.46-6.15,1.61.08,3.24.25,4.87.21,3.81-.05,7.61.68,11.44.18,2.65-.36,5.44-5.07,4.12-7.07-1.53-2.29-3.46-4-6.5-4-2.78.06-5.53,0-8.31,0a9.74,9.74,0,0,1-7.28-2.75c-2-2-1.72-4.28-.83-6.63.77-2,1.9-3.36,4.41-3.27s5.13-.32,7.71-.48c5.3-.31,10.51-.67,14-5.61,1-1.45,2.36-7.59,1.25-8.86-2-2.31-3.9-4.89-7.59-4.92-3.11,0-3.81,2.33-5.1,4.26-.82,1.22-1.39,3.26-3.06,3.08-4.08-.43-8.61-.52-11.22-4.32-1.9-2.73-3.49-3.36-6.72-2.05-6.51,2.64-11.56-.42-12.76-7.25-.21-1.22-.29-2.46-.45-3.69a3.2,3.2,0,0,1,.72-2.4c3.58-4.85,9.36-4.58,12.28.66,1,1.76,2.17,3.31,4.24,3.46,5.34.34,10.69.37,15.77-1.65,3.15-1.27,3.94-5.19,2.2-8-2.2-3.63-5.46-5.22-9.36-6.21-2.32-.59-4.92-.88-6.23-3.47-2.34-4.71-5.83-6.91-11.22-5.14a10.14,10.14,0,0,1-3.69.29c-2.43-.15-3.38,1.12-3.47,3.33-.07,1.29-.52,1.91-1.95,1.64-3.78-.66-7.4-1.55-10.1-4.65-.84-1-1-1.54-.48-2.67a32.26,32.26,0,0,1,8.77-10.76c2.65-2.25,5.14-2.79,8.29-1.27s6.59,1.76,10,2.15c1.64.18,2.63-.34,2.77-2.33a57.91,57.91,0,0,1,1.22-7.32c.8-3.86-.7-7-4.33-8.54a16.54,16.54,0,0,0-11.75-.53,3.2,3.2,0,0,1-3.56-.84A41.06,41.06,0,0,0,173,159c-2.09-1.13-3.83-2-6-.07-1.34,1.2-2.76,1.2-3-1.33a7.47,7.47,0,0,0-2.32-4.47c-.56-.57-1.29-1.36-2.21-.54-3,2.7-6.4,1.84-9.73,1-2.71-.69-4.34-2.34-3.92-5.38.34-2.53-.6-2.94-2.62-1.63-.32.21-.66.37-1,.55-4.21,2.11-8.74,4.05-13.27,4.05-3.4,0-4,1.7-5.2,3.68-1.33,2.26-2.64,4.52-4.09,7-2.73-3.23-5.29-6.23-8.1-9.53-.08,6.25-.08,6.27-3.85,9.94a4,4,0,0,0-1.22,3.09c0,4.16-4.64,11-8.5,12.45-2.26.87-3.62.19-4.41-2.08-1-2.88-2.07-5.71-3.2-8.54a5.8,5.8,0,0,0-5.17-3.85,52.58,52.58,0,0,0-19.55,1.27c-3.85,1-4.55,2.53-2.4,5.91.63,1,1.65,1.16,2.58,1.61a6.22,6.22,0,0,1,3.52,5.51c.11,2-2.11,1.83-3.36,2.51-2.69,1.45-5.68,2.31-8.86,4.62,6.41,0,12,.18,17.59-.07a6.77,6.77,0,0,1,6.75,3.83,4.58,4.58,0,0,0,3.3,2.68c3.2.7,5.42,9.42,3.13,11.8a5.23,5.23,0,0,1-1.68,1c-3.49,1.47-7,1.72-10.46-.11-1.64-.88-3.15-.61-5.06-.13-4.91,1.24-6.5,4.32-6.59,8.83a2.15,2.15,0,0,1-.14.54c-.26,1-.24,2.52-1.36,2.56-1.37,0-1.31-1.61-1.65-2.62-1-2.88-1.88-5.78-2.83-8.68-.82-2.52-2.47-3-4.9-2.25-3.75,1.11-6.38,3.52-8.88,6.35-1.95,2.2-3,4.49-1.61,7.25s.57,5-1.54,6.89c-.92.83-1.88,1.63-2.81,2.44-1.72,1.43-1.88,3-.4,4.69,2.53,2.84,5.32,5.17,9.51,4.87s8.55-.52,12.83-.7c1.63-.07,3.21.34,3.46,2.24.5,3.9.12,7.58-3.08,10.48-1.26,1.11-2.2,1.38-3.31-.07A3.34,3.34,0,0,0,54,245c-3.7.66-7.26,6.49-6.26,10.06.37,1.39,2,3.25.7,4.11-1.56,1.08-3-.87-4.28-1.91-4.93-4.06-6.12-3.87-9.49,1.65-.29.5-.59,1-.84,1.5a13.9,13.9,0,0,0-.4,10.06c.61,2.11,3.64,1.41,5.5,2.2,1.47.63,3.08.93,4.6,1.45a5.83,5.83,0,0,1,3.44,2.44c1.07,1.91,2.54,2.9,4.69,2s4.38-1.83,4.17-4.75c-.14-2,.88-2.68,2.68-2.84a18.43,18.43,0,0,1,4,.09c4.63.57,5.31,1.63,3.33,5.89-1,2.23-2.64,4.19-3.71,6.39-1.22,2.54-.38,3.92,2.34,4.56A18.5,18.5,0,0,0,75.65,287c5.24-2.08,10.81-2.15,16.25-3,1.36-.21,3-.14,3.62,1.58a41.09,41.09,0,0,1,2,5.92,4.65,4.65,0,0,0,3.63,3.87A14.25,14.25,0,0,0,116,289.93c1.65-2.45,3.69-4.33,6.68-4.24,3.4.11,5-1.83,6.28-4.46.51-1,.92-1.86,2.31-2.16,4.26-.92,7.29,1.46,7.33,6.15.07,7.27-.08,14.52.08,21.77,0,2.11-.78,2.76-2.63,3.17q-28.11,6.25-55.6,15C53.51,333.64,27.21,343.81,2,356.68c0,1.06.65.65,1.17.49A8.5,8.5,0,0,0,4.3,357c39.36-9.74,79.06-17.69,119.09-24.17q47-7.59,94.35-12.31,36.84-3.76,73.86-5.69c29-1.53,58-2.44,87-2.51,33.13-.07,66.23.64,99.31,2.33q28,1.43,56,3.65,28.35,2.31,56.64,5.48,26.41,2.93,52.75,6.51,29.43,4.07,58.71,9c22.15,3.76,44.24,7.79,66.24,12.34,10.41,2.14,20.83,4.33,31.77,6.6A15.53,15.53,0,0,0,798.53,357.22Zm-151.6-50.05c0,1.77-.57,2.09-2.15,1.79C629.94,306,615,303.55,600,301.28s-29.79-4.24-44.73-6q-24.43-2.92-48.94-4.94c-15.2-1.22-30.43-2.17-45.67-3.08-22.68-1.36-45.39-1.81-68.09-2.15-1.09,0-2.29.36-2.17-1.61.72-11.33,1.34-22.66,1.95-34,.09-1.52.18-2.08,2.21-2,10.91.68,19.2,6.67,27.2,13.15,2.73,2.21,5.36,3.78,8.94,3.67a15,15,0,0,1,4.81.58c7.13,2.25,12.89-1.62,18.92-4.12,2.17-.9,2.72-3.37,3.65-5.25,1.54-3.06,3.05-4.6,7.09-4,12.57,1.7,25.31,1.52,38,2.31a3.29,3.29,0,0,0,2.47-.4c5.26-4.06,10.54-8.09,15.9-12.19-2.33-2.13-4.55-4.1-6.68-6.12s-5-3.06-7.39-4.94c5.69-3.78,11.65-5.71,18.43-3.47a6.05,6.05,0,0,0,1.67.34c4,.11,7.3,1.11,7.55,6,.08,1.31.88,1.79,2,1.9,1,.09,1.92.14,2.85.25,5.85.68,5.93.71,7.66-4.87.34-1.13.72-1.63,1.88-1.52,3.76.34,7.59.19,10.9,2.65a56.51,56.51,0,0,0,5.5,3.15,12.86,12.86,0,0,0,.95-2.19c1.07-4.94,4.69-7.53,8.79-9.75a3.84,3.84,0,0,1,2.13-.67c10.65.81,20.65-2.43,30.8-4.86,3.74-.9,4.68.14,3.39,3.77a16,16,0,0,1-7.74,9c-6.76,3.76-13.89,4.76-21.35,4.71-6.12,0-12.17,1-18.28,1.2-1.66,0-1.93.71-1.27,2.07,0,.09,0,.2.07.29,3,9.16,3,9.16,12.59,11.22,4.26.93,8.5,2,12.8,2.81a2.13,2.13,0,0,1,2.07,2.15,37.75,37.75,0,0,0,1.29,6.43c.56,1.77-.23,1.88-1.59,1.91-5.25.13-10.49.38-15.74.49-1.55,0-2.31.12-2,2.16.73,5.25.59,5.21,5.89,5.32,4.87.09,9.74.37,14.59.45,1.52,0,2.11.46,1.72,2a5,5,0,0,0-.11,1.72A15.63,15.63,0,0,1,589,289.86a2.41,2.41,0,0,0-.49.68,1.86,1.86,0,0,0,0,.43c4,.61,8,1.18,12,1.83,1.14.19,1.43-.4,1.77-1.31.79-2.11.68-5.23,2.47-6.14,2-1,4.82-.34,7.29-.41a5,5,0,0,1,.86,0c7.93,1.17,14.78-.91,20.4-6.74a2.82,2.82,0,0,1,3.35-.79,17,17,0,0,0,1.67.37c2.81.79,6.82.2,8.19,2.39s.4,5.72.42,8.68C646.91,295,646.84,301.07,646.93,307.17Z"/><path class="a73487f2-c887-4731-a933-037b94c9366a" d="M511.66,116.49c-1.33,0-1.65,1.19-2.19,2-3.11,4.8-6.93,9.07-10.29,13.69-1,1.35-2,1.65-3.65.92-3.13-1.39-6.41-2.42-9.58-3.74-1.5-.63-2.62-.49-3.17,1.08-1.43,4.11-4.57,5.69-8.6,6.2a19.76,19.76,0,0,0-4.13,1.07,7.17,7.17,0,0,1-6.8-.79,17.5,17.5,0,0,0-1.78-.91c-4.36-2.17-4.32-2.13-8,1.24a64,64,0,0,1-7.88,6.59c-2.9,1.87-6.54,1.7-9.86,2.41-1,.21-1.18-.73-1.48-1.42-1.51-3.5-3-7-4.61-10.46-.93-2,.44-2.7,1.57-3.4,5.27-3.25,8.84-8,11.93-13.19.28-.48.51-1,.83-1.62-4.6-1.46-9-2.93-13.48,0a12.58,12.58,0,0,1-1.86.72c-9.83,4-9.83,4-19.27-.58-5-2.42-5.1-2.46-6.91,2.72-.86,2.44-2.09,3.35-4.75,3.34a116.65,116.65,0,0,0-11.92.93c-1.46.14-2.53.1-3-1.69-1-3.57-2.14-7.11-3.39-10.6-.59-1.63-.28-2.32,1.4-2.88a123.13,123.13,0,0,1,19.95-4.73,6.34,6.34,0,0,0,3.75-1.82c2.88-2.92,5.75-5.86,8.72-8.7,2.2-2.1,2.16-5,2.87-7.61,1.7-6.26,1.6-6.3,7.91-4.75,1.85.45,3.71.88,5.52,1.43,1.48.45,2.62.06,2.86-1.43,1-6.19,5.49-9.32,10.38-12,2.51-1.39,2.79-2.93,1.48-5.24-2.19-3.86-3.05-8.41-6.6-11.58-3.94-3.51-6.75-3.32-8.88,1.44-1.25,2.81-2.48,3.2-5.28,2.09a47.7,47.7,0,0,1-14.67-8.5c-4.19-3.7-10-4.22-15.33-4.55a121.92,121.92,0,0,0-16,.29c-4.5.31-9.09-.5-13.62-1-2.85-.31-4.22.37-4.67,3.59-.76,5.32-1,5.25-6.36,4.07-2-.45-4.12-.73-6.17-1.13-4-.77-6.13.49-6.54,4.59-.33,3.21-2.22,5.63-3.32,8.44-.44,1.13-1.37,1.18-2.37,1.11-4.65-.3-9.31-.46-13.94-1-1.63-.18-2.2.23-2.65,1.64-1.71,5.3-1.74,5.29,3,8.1.08,0,.15.11.24.15,3.8,1.45,5.26,3.76,4.19,8.08-.91,3.7-.29,3.91,3.43,2.66,6.31-2.11,6.31-2.11,9.38,4,1.34,2.68,5.89,5.18,8.82,4.92,1.08-.09,1.39-1,1.83-1.62,2.17-3.25,4.35-6.49,6.36-9.84.87-1.44,1.56-1.48,2.91-.64A87.8,87.8,0,0,1,366,84.06a8.58,8.58,0,0,1,0,13.21c-2.66,2.16-5.33,4.31-7.87,6.6-1.23,1.1-2.34,1.56-3.83.72-.24-.14-.6-.11-.8-.28-5.64-4.59-11.16-2.51-16.62.33-1.49.77-3.28,1-4.79,2.39,2.86,1.08,5.47,2.1,8.12,3,1.42.5,2.16,1.15,1.15,2.65a7.24,7.24,0,0,0-.38,1.08c-2.32,5.54-5.48,6.34-10.09,2.46a38.18,38.18,0,0,0-5.38-3.76c-1.3-.75-2.68-1.37-4.25-2.16-.32,2.62-.94,4.91-.76,7.28.13,1.63-.35,2.39-2.2,2.42s-4.26-1-5.71.8a25.8,25.8,0,0,0-5.24,9.42c-.5,1.89.66,3.13,2.18,3.93,4.66,2.46,9.27,4.7,14.89,2.49,3.59-1.42,7.52-2,11.28-3,2.92-.79,4.69-3.26,6.72-5.16,3-2.84,6.13-4.61,10.41-4a14,14,0,0,0,5.1-.37c1.87-.43,2.53.45,1.74,2.24a15.67,15.67,0,0,1-4,5.51c-2.17,1.92-1.91,3.41.6,4.89,3.69,2.18,7.63,1.89,11.62,1.29.84-.12,1.69-.27,2.54-.31,4.06-.18,5.79,2,4.81,6a48.57,48.57,0,0,1-1.58,5.19c-.95,2.57-.29,4.88.93,7.12,1.49,2.76,3,3,5.42.88a22.38,22.38,0,0,0,4.74-6.41c.81-1.54,1.59-2,3-.89a2.5,2.5,0,0,0,.75.41c7.66,2.23,7.74,8.87,8.68,15,.52,3.38.67,3.52,3.63,2.08s5.68-2.73,8.47-4.19c1.78-.94,2.82-.62,3.37,1.39.9,3.3,2.18,6.53,2.75,9.88.38,2.22,1.37,2.55,3.22,2.57a45.13,45.13,0,0,0,11.28-1.5c3.8-.92,3.77-.91,4,2.82a41.63,41.63,0,0,0,.65,6.52c.43,1.95-.09,2.28-2,2.48-9.72,1-19.45.29-29.16.47-4.33.08-8.48,1.14-12.65,2-2.52.5-3.66,3.22-5.22,5.07-4.31,5.14-4.35,5.29-7-.52-1.3-2.83-2.64-4.42-6-3.16a13.22,13.22,0,0,1-4.78.68c-3.47,0-4.45,2.87-6.07,5-3.09,4-2.75,3.77.57,7.46s7.38,3.45,11.63,2.86a3.44,3.44,0,0,1,.55-.15c1.67,0,3.8-1.35,4.84.72,1.28,2.52-.27,5.77-2.39,7.26-5.35,3.75-11.43,5-17.73,5.47-3.17.22-5.11,2.3-7.34,4-2,1.49-3.81,3.13-5.94,4.88,2.57,1.27,5.27,1.06,7.79,1.35,2.12.25,2.64,1.12,2.93,3,.32,2.16-.2,4.6,1.65,6.38a21,21,0,0,0-3.07,1.31c-4.16,2.6-8.43,2.65-13,1.19-3.72-1.17-9,1-11.28,4.17a16.49,16.49,0,0,0-2,2.79c-1.91,4.27-5.29,4.61-9.39,4.14-7.95-.9-15.95-1.43-23.91-2.2a3.84,3.84,0,0,0-4,1.9c-2.06,3.09-4.36,6-6.57,9-.61.83-1.12,1.78-2.46,1.6-5.09-.65-10.28-.66-15.23-2.26-3.2-1-3.63-1.9-2.32-5.05a112.42,112.42,0,0,1,8.79-16c.87-1.41.95-2.15-.87-2.52A23.24,23.24,0,0,1,257,226.45a4.93,4.93,0,0,0-4-2.29c-8.93-1.22-18-1.92-26.15-6.81,5.84-1.33,11.79-2.39,17.57-4,7-2,14.14-1.72,21.27-1.65,1.74,0,2.79-.39,3.49-2.09,1.72-4.19,4.4-8.05,4.26-12.86-.16-5.49-2.73-8.09-8.22-7.91-7.53.24-15,1-22.49,2a22,22,0,0,1-7.64-.59,3.54,3.54,0,0,1-2.18-1.25c-2.65-4.53-7-7.51-10.16-11.6-4.68-6.08-5-13.2-4.66-20.38.1-2.44,2-3.22,4.3-3.14a115.69,115.69,0,0,1,25.1,3.67,55.11,55.11,0,0,0,8.91,1.85c4.56.4,9.16.32,13.45-1.7a35,35,0,0,1,19.27-2.76c5.7.67,8.73-1.31,10.89-6.63,1.7-4.19,3.31-8,1.59-12.47-1.36-3.6-2.83-4.48-6.51-3.36A64.41,64.41,0,0,0,282,138.62a10.08,10.08,0,0,1-5.14,1.38,340.84,340.84,0,0,0-35.72,1.68c-2,.21-3.09-.1-3.3-2.54A74.53,74.53,0,0,0,236,129a2.74,2.74,0,0,1,.71-2.81c3.91-4.23,7.84-8.31,14-9.34a20,20,0,0,0,6.88-2.67c2.83-1.7,3.26-3.27,1.75-6.16-.26-.5-.59-1-.84-1.49-.66-1.3-2.36-2.51-1.35-4s2.79-.89,4.29-.84a63.05,63.05,0,0,1,12.16,1.55,3.48,3.48,0,0,0,4-1.27c2.39-3,5.11-5.69,7.39-8.75,2-2.67,4.66-3.76,7.6-5,5.5-2.35,9.74-2.32,13.08,3.38,1.16,2,2.88,5,4.76,4.93s3.36-3,5.06-4.68c1.23-1.2,2.5-2.36,3.77-3.52,1.64-1.5,1.88-3.18.21-4.69-3.81-3.44-7.68-6.84-11.66-10.1a9.2,9.2,0,0,0-5.64-1.75c-8.28-.25-16.1-2.61-23.87-5.26a2.61,2.61,0,0,1-2.08-3.11,26.69,26.69,0,0,0-1.58-12.07,2.37,2.37,0,0,1,.35-2.6c3.16-4.3,6.2-8.68,7.81-13.86.36-1.18,1-1.23,2.11-.91,4.05,1.15,7.85,2.4,10.78,5.86s10.62,3,13.55-.59a33.82,33.82,0,0,0,2.28-2.93,65.54,65.54,0,0,1,19.28-18.79c3.74-2.46,7.86-3.29,11.92-4.46C356,9.22,369.4,5.68,382.47,1c1.69-.61,2.23-.1,2.76,1.44,1.14,3.3,1.21,3.25,4.24,1.36,2.08-1.3,4.21-2.53,6.31-3.79,1.15,2.08,2.35,4.14,3.45,6.25,2.08,4,6.2,5.81,9.17,8.86a1.12,1.12,0,0,0,1.33.17,10.31,10.31,0,0,1,1.59-.63c4.41-1,7.14-3.53,7.72-8.17.23-1.83,1.2-2.3,3.16-2,4.32.6,8.7.78,13.32,1.15a15.89,15.89,0,0,1-4.22,4.94c-1.11.9-2.31,1.69-3.47,2.52-5,3.59-4.92,3.57-3.77,9.47.45,2.35,1.66,3,3.86,3.53,6.57,1.71,12.14-.82,17.72-3.49a3.63,3.63,0,0,1,4.55.61A36.13,36.13,0,0,0,459.66,29c1.56.67,3,1.53,4.61,2.34-1,1.25-2.09.65-3,.6-6.29-.36-12.55-.6-18.84.37-2.78.43-3.84,1.39-4.09,4.44a19.94,19.94,0,0,0,2.25,10.9c.75,1.51,1.51,1.7,2.84,1.25l.27-.07c5.91-2.28,11-.85,15.44,3.44,1.52,1.48,2.66,1.3,4.66.57,5.65-2,6.7-6.42,6.65-11.46,0-2.47.83-4,3.16-4.67a2.64,2.64,0,0,0,.77-.38c5-4.12,10.06-3,15.38-.71,1.81.77,2.17,2.2,2.47,3.51.72,3.18,2.53,3.77,5.53,3.55,4-.29,7.63-.92,10.31-4.34a10.41,10.41,0,0,1,8.1-3.9c.24,2.82.46,5.71.73,8.59a1.85,1.85,0,0,1-1.43,2.12c-2.3.93-4.48,2.13-6.82,2.92s-1.92,1.66-.88,3.42c3.3,5.56,8.67,8.77,13.69,12.32,2.21,1.56,2.5,2.59,1,4.88-3.8,5.79-3.67,5.86-10.47,4.75-1.12-.19-2.26-.31-3.4-.44-1.6-.19-3.37-.86-4.78-.42-1.74.56-.86,2.83-1.47,4.25s-1.38,2.15-3,2c-2.56-.27-5.14-.37-7.7-.59-1.4-.12-2.25.33-2.15,1.86.36,5.56-2.59,7.91-7.76,8.92-4.7.92-4.63,1.27-2.48,5.59,2.54,5.08,2.55,5.15,8.37,4.26,2.54-.39,4.09-.23,3.62,3a7.06,7.06,0,0,0,1.51,5.1c1.62,2.21,3.59,2,4.85-.42.61-1.18,1.07-2.43,1.59-3.65a2.5,2.5,0,0,1,3.71-1.47c3.05,1.31,5.64,2.9,6.32,6.66A72.88,72.88,0,0,0,511.66,116.49Z"/><path class="f24d3ec3-8de3-4a1e-8ced-cc6de0c8a155" d="M2,356.68l1.15.49c-.9.77-2,.6-3.16.87A2.52,2.52,0,0,1,2,356.68Z"/><path class="a73487f2-c887-4731-a933-037b94c9366a" d="M488.09,150.34c.87,2.48,1.53,4.46,2.27,6.41.68,1.76,2.16,3,3.78,1.9,3-2,5-.48,7.2,1.32,3.41,2.73,3.44,2.57.34,5.39a149.66,149.66,0,0,0-12.25,12.81c-2.45,2.83-1.62,7.52,1.69,10.1a8.24,8.24,0,0,1,2.82,3.13c1,2.27,1.49,4.47-.05,6.74a11.85,11.85,0,0,0-1.47,3.09c-.33,1.11-.43,2.61-1.74,2.59s-1.41-1.61-1.8-2.62c-2.87-7.49-4.53-8.18-11.59-4.7-.51.26-1,.49-1.53.78-1.55.95-3.46,1.62-4.5,2.95-1.17,1.49.65,3.18.86,4.87.36,3-3.58,7-7.29,7.1-4.86.2-7-1.2-8.75-5.87-.67-1.77-1.53-2.9-3.81-2.3-1.53.41-3.26,0-4.84.25-1.79.29-3.18-.08-3.54-1.91a4.1,4.1,0,0,1,1.87-4.67,7.28,7.28,0,0,0,2.18-10.6,2,2,0,0,0-2.7-.77c-1.56.64-3.36.39-4.17-.88-1.05-1.63.21-3.47.75-5.15a2.69,2.69,0,0,1,3.13-1.91,9.51,9.51,0,0,1,1.7.18c1.59.45,2.33-.18,1.85-1.7-.85-2.68.68-3.64,2.77-4.35a13.67,13.67,0,0,1,6.23-.25c1.5.19,2.23,1,2.17,2.71-.09,3.2,3.63,7.43,6.66,7.84,1.54.21,2.14-.82,2.09-2a21.13,21.13,0,0,0-.77-3.91c-1.09-4.69.22-7.58,4.48-9.86,1.32-.71,3.1-1.2,2.93-3.1a8.88,8.88,0,0,0-2.83-5.12c-.62-.65-1.41-.24-2.15,0a28.59,28.59,0,0,0-7.24,3.32c-2.53,1.66-5.26,1.2-6.87-.9-3.25-4.24-3.35-5.78-.85-8.44a2.63,2.63,0,0,1,3.76-.54c2.55,1.48,4.88,3.32,7.67,4.41,2,.79,3.67.64,5.19-1,.72-.75,1.6-1.88,2.59-1.49,1.26.51.64,2,.71,3.11a14,14,0,0,0,.5,3.95c.43,1.14.94,2.1,2.26,2.29a2.78,2.78,0,0,0,2.86-1.51c1.65-2.68,3.25-5.38,4.92-8C486.28,152.85,487.08,151.79,488.09,150.34Z"/><path class="a73487f2-c887-4731-a933-037b94c9366a" d="M433.22,230.58a30.51,30.51,0,0,1-11-1.43c-1.9-.58-4.14-1.1-5.87.79-.73.8-1.38,1.77-1,2.8s1.5,1.12,2.45,1.15c1.81.08,3.63,0,5.44.09,2.81.09,4.64,1.3,4.79,4.35a3.66,3.66,0,0,0,.05.57c.81,4.78,1.25,5,5.62,2.85,3.68-1.86,7.23-.58,10.82.17a1.38,1.38,0,0,1,1.15,1.72c-.37,1.44-.55,3-2.43,3.51-2.4.6-4.77,1.32-7.15,2-1.36.38-2.6.72-1.86,2.68.45,1.21-.36,1.67-1.54,1.68-3.53,0-6.86-.17-10.23-1.85-5.35-2.67-10.59-5.54-15.82-8.41-3.05-1.67-6.36-.9-9.51-1.49-2.15-.4-2.18-.7-1-2.7,2.85-4.72,7.24-6.08,12.13-6.74a12.07,12.07,0,0,0,7.54-4.13c1.48-1.62,1.47-2.38-.61-3.18-5.95-2.31-11.81-4.81-17.8-7-2.35-.86-2.87-1.89-1.94-4.2,2.42-6,.6-5,7.06-4.95,3.5,0,7-.52,10.49-.2,2.13.2,2.71,1.39,3,3.13A11.39,11.39,0,0,0,424.7,221c1.94.39,3.41-1,4.83-2,1.18-.87,2.31-1.51,3.62-.66s.45,2,.23,3.11c-.59,3,.62,4.51,3.66,4.5,1.77,0,3.33,0,3.13,2.48-.13,1.53-.44,2.53-2.38,2.23A29,29,0,0,0,433.22,230.58Z"/><path class="48f9f14b-e11c-4809-bc50-3a8791618035" d="M471.76,222.3c1.62.65,3.2-1.16,4.51.47.53.66,1.31,1.17,1,2.19-1,3.44-6.62,5.66-9.63,3.87a5,5,0,0,1-2-2.33c-.66-1.41-.78-2.51,1.18-2.89C468.56,223.27,470.12,222.16,471.76,222.3Z"/></g></g></svg>