<svg xmlns="http://www.w3.org/2000/svg" viewBox="0 0 740.56 506.63"><defs><style>.fd66434c-8ed4-4106-9347-6058196f304c{fill:#005f32;}.e1d77372-508c-45c7-8654-5871048bdbd9{fill:#28b24b;}.a0a45137-e24a-4300-9299-23eba5368f45{fill:#448462;}.\31 16c29d4-d9e0-4ec4-9298-fa7244b71ee4{fill:#27b24b;}</style></defs><title>Asset 2</title><g id="52ac2352-3e64-4778-8041-334243f3e47b" data-name="Layer 2"><g id="7417c6f1-c77f-44e0-b744-4b5aa3ff27e7" data-name="Layer 1"><path class="fd66434c-8ed4-4106-9347-6058196f304c" d="M739.2,330.68a171.07,171.07,0,0,0-17.63-9C693,309,663,300.63,632.63,293.51c-7.54-1.77-15.14-3.28-22.7-5-.89-.19-2.1-.08-2.07-1.75.08-7.51,0-15,.07-22.54,0-2,3.36-4.39,5-3.61,4.45,2,9.35,3.38,12.52,7.51,2.71,3.53,6.26,4,10.32,3.33,1.82-.3,4.11.33,5.43-.58,1.48-1,1-3.53,1.33-5.39.26-1.37.73-1.85,2.2-1.69A243.91,243.91,0,0,0,675.45,265c.91,0,1.83-.08,3.22-.15-3.23-2.35-5.95-4.44-8.79-6.31-1.55-1-1.87-1.69-.36-3.09,2.73-2.5,5.37-5.13,7.87-7.87,1.26-1.37,2.24-1.49,3.33,0,3.22,4.23,7.56,4.61,12.56,4.82,5.92.24,9.83-3,14.45-5.68-2.25-1.41-4.26-2.68-6.28-3.93a6,6,0,0,1-2-1.65c-1.23-1.76-1.73-4.74-3.72-5s-4,1.44-6,2.27c-.25.1-.53.12-.77.23-1.6.88-2.08.34-1.67-1.34,1-4.06-.41-7.45-3.11-10.34-1.83-1.94-4.3-3.05-6.53-4.44-1.64-1-2.54-1.71-.25-3.13a30,30,0,0,0,6.69-6c1.26-1.48,2.31-1.79,3.45,0,2.72,4.21,6.23,4.52,10.82,3.07,2.78-.9,3.33-1.66,2.9-4.48-.93-6.06-3.36-11.36-8.55-14.41-4.16-2.44-6.81-4.86-5.77-9.93,0-.1-.2-.23-.54-.6-3.86,5.59-9.62,7.2-16,7.53-1.79.08-2.51-.53-2.82-2.27s.5-3.73.06-5.77c-1.34.88-2.53,1.61-3.66,2.44-3.64,2.65-7.06,2.2-10.67-.3-2.1-1.44-2.53-2.64-1.09-4.77,1-1.53,1.54-3.39,2.52-4.94,3-4.87,6.19-9.43,12.84-10,4.7-.42,4.77-.83,3.48-5.37-.57-2-.25-3.21,1.44-4.46,2.14-1.57,4-3.46,6.23-5.35-8.17-.68-15.94-1.86-23.13,3-2.14,1.44-4.19,2.62-5.52,4.94a23.61,23.61,0,0,1-4.61,5.76c-2.33,2.16-3.76,2-5.51-.74a7.23,7.23,0,0,1-1.2-2.34c-.38-1.84-1.61-2.8-3.06-3.69-2.64-1.64-5.21-3.37-8.11-5.26l13.11-6.59c.5-.23,1.08-.45,1-1-.08-.76-.8-.46-1.26-.49-4-.37-8.1-.68-12.15-1-3.56-.29-7-1-9.53-3.81C614.92,138,610,137,604.51,137a13.34,13.34,0,0,0-7.5,1.79c-3.9,2.47-8.06,4.49-12.78,4.47A15.94,15.94,0,0,0,571,149.66c-.69.88-1.8,1.46-2.5,2.34-1.44,1.85-3.41,2.32-5.57,2.5s-4.39.35-6.57.61c-4.71.56-7,4.61-10.34,7.19-.15.12-.12.5-.15.77-.29,2.51,3,6.87,5.56,7.24,5.24.74,10.46,1.62,15.73,2a9.82,9.82,0,0,1,6.5,3c1.37,1.36,2.61,2.87,3.87,4.33.6.69,1.1,1.35.1,2.23a26.47,26.47,0,0,1-6.89,4.86c-2.42,1-4.29.43-5.15-2-.62-1.74-1.28-1.66-2.66-1.06-5.33,2.25-10.62,4.64-16.09,6.54a25.91,25.91,0,0,0-7.63,4c-5.89,4.63-8.32,3.7-10.05-3.57-.2-.8.09-2-.94-2.32-3-.82-5.92-2.42-9.13-2.21-4.76.33-9.53.71-14.22,1.46-2.4.38-2.5-.51-2.62-2.4-.38-6.5-.31-13-2.3-19.37-.46-1.53-1.11-2-2.57-1.56a23.07,23.07,0,0,1-6.84.43,3.1,3.1,0,0,1-3.22-2.54c-.68-2.43-1.57-4.82-2.33-7.25-1.58-5.12.31-8.52,5.46-10,2.21-.62,4.41-1.21,6.58-1.91a5.78,5.78,0,0,1,4.54.18c6.2,2.94,12.58,4.91,19.52,2.9a1.91,1.91,0,0,1,.53,0c3-.15,3.43-.68,3.22-3.71a32.79,32.79,0,0,0-1.36-7.52c-1.74-5.61-2.75-11.54-6.48-16.28a62.06,62.06,0,0,0-29.5-20.89c-1.37-.47-1.72-.12-2,1-.55,2.2-1.18,4.41-1.61,6.64-.2,1-.54,1.56-1.62,1.68-2.88.3-5.72,1.06-8.65.83-1.71-.63-2.16.86-2.79,1.79-2.65,3.87-5.7,7.44-8.48,11.18-1.24,1.69-2.5,2.19-4.51,1.33-2.42-1-5-1.81-7.42-2.84-2-.86-3.48-.43-4.33,1.54-1.29,3-3.71,4.06-6.69,4.91-4.79,1.37-9.28,2-13.6-1.21-1.55-1.13-3.17-.76-4.66.4-.76.61-1.46,1.27-2.2,1.9-4,3.43-7.76,7.26-13.58,7.54-1.67.08-2.7-.15-3.34-1.74-.9-2.2-1.74-4.46-2.85-6.56-1.21-2.29-.72-3.76,1.39-5,4.52-2.75,7.42-7,10-11.42,1.16-2,.9-2.6-1.26-3.28-3.51-1.11-7-1.73-10.5.25-1.45.81-3.19,1.12-4.64,1.93-4,2.21-7.93,2.69-11.92-.06a20,20,0,0,0-2.88-1.33c-5.3-2.57-5.34-2.58-7.59,2.8-.63,1.53-1.39,2.49-3.23,2.57-3.71.15-7.41.45-11.09.78a2.32,2.32,0,0,1-2.8-1.77c-.84-2.52-1.64-5-2.53-7.54-.72-2-.12-3,1.95-3.7a139.29,139.29,0,0,1,16.52-3.83A6.71,6.71,0,0,0,374.28,95c5.3-5.12,11.52-9.61,12.05-17.93a5.25,5.25,0,0,1,.2-.78c.38-1.63,1.36-2.12,3-1.71,2,.52,4.11,1,6.18,1.54,3.86.93,4.64.62,5.85-3.2a11.29,11.29,0,0,1,5.43-6.84,38.19,38.19,0,0,0,4.19-2.8c1.06-.79,1.84-1.82,1.28-3.18-1.67-4-2.87-8.22-5.82-11.52-4.45-5-7.34-4.72-10.78.91-.53.88-1.1,1.79-2.26,1.3-3.71-1.59-8-2.11-11-5.07a25.53,25.53,0,0,0-14.3-6.93,45.94,45.94,0,0,0-6.31-.56c-7.39-.24-14.8.94-22.19-.22-6.4-1-6.79-.76-8.32,5.37-.44,1.74-1.24,2.37-3,1.89a62.42,62.42,0,0,0-7.54-1.49c-4.08-.63-6,.61-6.76,4.72a27.6,27.6,0,0,1-2.29,6.18,3.33,3.33,0,0,1-3.55,2.14c-3.71-.1-7.4-.48-11.08-.78-2.21-.2-3.4.35-3.85,2.5a25.39,25.39,0,0,1-.71,2.55,3,3,0,0,0,1.49,3.83c1.44.88,2.89,1.76,4.38,2.52a3.38,3.38,0,0,1,2,3.88c-.78,6.14-.33,6.49,5.47,4.57,3.73-1.24,4-1.34,5.48,2.44s4,5.51,7.87,6c1.81.26,3.08-.09,4.08-1.63,1.59-2.45,3.28-4.82,4.8-7.32s1.69-2.57,4.33-1a47.8,47.8,0,0,1,5,3.43c4.34,3.4,4.49,8.3.32,12-2,1.76-4.1,3.37-6.07,5.14a4.14,4.14,0,0,1-5.1.63c-1.28-.65-2.54-1.26-3.81-1.86a4.5,4.5,0,0,0-3.07-.63,64.81,64.81,0,0,0-11.77,4.74c-1.29.65-1.25,1.71.19,2.29a44.53,44.53,0,0,0,7.65,2.7c-.3.68-.63,1.41-1,2.12-2.14,4.69-4.19,5.21-8.33,2-1.35-1-2.69-2-4.11-2.91-5.34-3.32-6.28-2.89-6.53,3.33-.08,2.12-.7,3.2-2.92,3-2.7-.3-4.54.88-5.86,3.2-.88,1.52-1.84,3-2.59,4.62-1.57,3.43-.91,5.37,2.47,7.17a17.62,17.62,0,0,0,13.7,1.86c6.91-1.84,13.62-3.61,18.56-9.28a5.41,5.41,0,0,1,4-1.89,63.2,63.2,0,0,0,7.41-.25c1.27-.18,1.64.45,1.14,1.58a15.8,15.8,0,0,1-3.13,4.24c-2.07,2.14-1.79,4.14.81,5.57a12.05,12.05,0,0,0,7.37,1.69c1.84-.22,3.68-.35,5.52-.62,3.83-.54,4.58,1.06,4.1,4.69a37.86,37.86,0,0,1-1.45,5.11,8.8,8.8,0,0,0,1.41,7.3c1.21,1.93,2.82,2.26,4.76,1.08a11.77,11.77,0,0,0,3.64-3.79c3.17-4.82,2.24-4,7.05-1.58a6.44,6.44,0,0,1,3.89,5.52,65.61,65.61,0,0,0,1.16,6.53c.55,3,1.57,3.53,4.41,2.2,2.32-1.09,4.6-2.25,6.87-3.43,1.79-.92,2.77-.41,3.37,1.45.79,2.43,1.49,4.9,2.07,7.4.75,3.2,1.13,3.47,4.51,3.55a36.12,36.12,0,0,0,10-1.38c1.7-.41,2.76-.16,2.75,1.91,0,1.59.39,3.15.54,4.72.17,1.94-.28,2.87-2.47,3.07-7.67.71-15.36.15-23,.31-2.73.07-5.45.37-8.17.58a15.75,15.75,0,0,0-12.46,7.29c-1.84,2.67-2.45,2.47-3.89-.33-.45-.86-.9-1.72-1.33-2.6a3.48,3.48,0,0,0-4.12-2c-2.09.4-4.2.7-6.29,1.08a4.35,4.35,0,0,0-2.66,1,38.93,38.93,0,0,0-4.94,6.88,1.66,1.66,0,0,0,.26,2.2c3.24,2.61,5.67,6.83,11,5.44a33.35,33.35,0,0,1,4-.45c2.8-.38,3.33.18,3.25,2.92a3.91,3.91,0,0,1-2,3.18c-4.77,3.5-10.32,4.37-15.95,5.07a8.59,8.59,0,0,0-4.91,1.79c-1.92,1.69-4,3.18-5.95,4.85-.76.67-2.14,1.2-1.72,2.39s1.84,1.16,3,1.34l.54,0c5.26.56,5.25.56,6.24,5.65.22,1.12,0,2.63,1.83,2.75,2.2-1.25,4.27-.83,6.41.31a25.43,25.43,0,0,0,4.85,2c1.64.48,2.11,1.34,2.09,3-.08,9.37,0,18.74-.05,28.11,0,2.73,1,6.34-.41,7.93-1.56,1.83-5.31.68-8.09.72q-31.93.38-63.81,2.45-26.55,1.71-53,4.79-18.53,2.13-37,5c-15.58,2.44-31.11,5.2-46.52,8.57-1.26.26-1.9.18-1.89-1.46.09-7.86.07-15.73,0-23.58,0-1.54.55-1.86,2-2,3.61-.33,7.17-.89,10.77-1.41a4.13,4.13,0,0,1,3.64,1c3.45,3,7.49,5.27,11.34,7.75,1,.65,1.84.88,2.82,0,3.86-3.53,7.93-3.06,12.11-.61,1,.6,2.25.76,2.83,2.14,1.81,4.26,3,4.32,5.87.66a3.37,3.37,0,0,0,.69-3.2c-.56-2-1.11-4.07-1.74-6.08-1.31-4.21-.08-5.93,4.13-5.7,1.49.08,3,.23,4.51.2,3.53-.05,7,.63,10.59.17,2.45-.34,5-4.69,3.81-6.55-1.41-2.12-3.2-3.73-6-3.68-2.57.05-5.12,0-7.69,0a9,9,0,0,1-6.74-2.55c-1.84-1.84-1.59-4-.76-6.13.71-1.86,1.75-3.12,4.07-3s4.76-.3,7.15-.45c4.9-.28,9.72-.61,12.95-5.19,1-1.34,2.19-7,1.16-8.2-1.87-2.14-3.61-4.52-7-4.56-2.89,0-3.53,2.16-4.73,3.95-.76,1.12-1.29,3-2.83,2.85-3.78-.4-8-.48-10.39-4-1.76-2.53-3.23-3.11-6.21-1.9-6,2.45-10.71-.38-11.82-6.71-.2-1.13-.26-2.27-.41-3.42a3,3,0,0,1,.66-2.22c3.32-4.49,8.67-4.24,11.37.62.89,1.62,2,3.06,3.93,3.19,4.93.32,9.89.35,14.59-1.52,2.92-1.18,3.65-4.81,2-7.44-2-3.36-5-4.84-8.66-5.75-2.16-.55-4.56-.81-5.77-3.22-2.17-4.35-5.4-6.39-10.39-4.75a9.29,9.29,0,0,1-3.41.26c-2.26-.13-3.14,1-3.22,3.09-.06,1.19-.48,1.77-1.8,1.52-3.5-.61-6.85-1.44-9.35-4.31a1.88,1.88,0,0,1-.45-2.47,29.87,29.87,0,0,1,8.12-10c2.45-2.08,4.76-2.58,7.67-1.17s6.1,1.62,9.25,2c1.52.16,2.44-.32,2.57-2.16a51.28,51.28,0,0,1,1.13-6.78c.74-3.57-.65-6.49-4-7.9a15.32,15.32,0,0,0-10.87-.5,3,3,0,0,1-3.3-.78,38.37,38.37,0,0,0-8.22-5.71c-1.94-1-3.55-1.87-5.59-.07-1.24,1.11-2.55,1.11-2.78-1.22a7,7,0,0,0-2.15-4.15c-.52-.53-1.2-1.26-2-.49-2.79,2.5-5.93,1.7-9,.92-2.5-.64-4-2.17-3.63-5,.32-2.34-.54-2.72-2.41-1.51a9.41,9.41,0,0,1-.93.51c-3.9,2-8.09,3.75-12.28,3.75-3.15,0-3.75,1.57-4.82,3.41-1.23,2.09-2.44,4.18-3.78,6.46L103.2,141c-.06,5.78-.06,5.8-3.56,9.19A3.77,3.77,0,0,0,98.51,153c0,3.84-4.29,10.14-7.87,11.52-2.09.81-3.35.18-4.07-1.93-.92-2.66-1.93-5.28-3-7.9a5.35,5.35,0,0,0-4.79-3.56,48.67,48.67,0,0,0-18.1,1.17c-3.56.95-4.2,2.34-2.22,5.47.58.93,1.53,1.08,2.39,1.49a5.76,5.76,0,0,1,3.26,5.11c.1,1.85-2,1.69-3.11,2.32-2.49,1.34-5.25,2.14-8.2,4.27,5.93,0,11.12.17,16.29-.06a6.25,6.25,0,0,1,6.24,3.54,4.27,4.27,0,0,0,3,2.49c3,.64,5,8.71,2.9,10.92a4.66,4.66,0,0,1-1.56,1,10.79,10.79,0,0,1-9.67-.1c-1.53-.81-2.92-.56-4.69-.12-4.54,1.15-6,4-6.1,8.17a1.85,1.85,0,0,1-.13.5c-.23.93-.22,2.34-1.26,2.37-1.26,0-1.21-1.49-1.53-2.42-.89-2.67-1.74-5.35-2.61-8-.77-2.33-2.29-2.75-4.55-2.08-3.46,1-5.89,3.26-8.21,5.88-1.81,2-2.74,4.16-1.5,6.71s.53,4.59-1.42,6.38c-.85.76-1.74,1.51-2.6,2.25-1.59,1.33-1.74,2.82-.37,4.34,2.34,2.64,4.92,4.79,8.8,4.51s7.92-.48,11.88-.64c1.51-.07,3,.31,3.2,2.07.47,3.61.12,7-2.85,9.71-1.16,1-2,1.27-3.06-.07a3.09,3.09,0,0,0-3.14-1.52c-3.43.61-6.72,6-5.8,9.31.35,1.29,1.81,3,.65,3.81-1.44,1-2.78-.81-4-1.77-4.56-3.76-5.67-3.58-8.78,1.52-.27.47-.55.91-.78,1.39a12.85,12.85,0,0,0-.37,9.32c.57,1.95,3.37,1.31,5.09,2,1.36.58,2.85.87,4.26,1.35A5.35,5.35,0,0,1,43.43,256c1,1.77,2.35,2.68,4.34,1.87s4.06-1.69,3.86-4.39c-.13-1.87.82-2.48,2.49-2.63a16.85,16.85,0,0,1,3.69.08c4.3.53,4.93,1.51,3.09,5.45-.95,2.07-2.44,3.88-3.43,5.92-1.13,2.35-.35,3.63,2.17,4.22A17.08,17.08,0,0,0,70,265.65c4.85-1.92,10-2,15-2.73,1.26-.2,2.75-.13,3.35,1.46a36.29,36.29,0,0,1,1.82,5.48,4.3,4.3,0,0,0,3.37,3.58,13.2,13.2,0,0,0,13.78-5.05c1.53-2.27,3.42-4,6.19-3.93,3.14.1,4.63-1.69,5.81-4.12.47-1,.85-1.73,2.14-2,3.94-.84,6.74,1.36,6.78,5.7.06,6.73-.07,13.44.08,20.15,0,2-.73,2.55-2.44,2.93q-26,5.79-51.46,13.86A470.73,470.73,0,0,0,1.86,330.18c0,1,.59.6,1.07.45a8.87,8.87,0,0,0,1-.12c36.44-9,73.19-16.37,110.24-22.37,29-4.69,58.11-8.43,87.35-11.4q34.1-3.48,68.37-5.27c26.82-1.41,53.67-2.25,80.53-2.32,30.67-.06,61.31.6,91.93,2.16q26,1.31,51.82,3.38,26.25,2.13,52.43,5.07,24.45,2.7,48.83,6,27.24,3.75,54.35,8.37c20.5,3.48,40.95,7.2,61.32,11.41,9.64,2,19.28,4,29.41,6.12A16.25,16.25,0,0,0,739.2,330.68ZM598.86,284.35c0,1.64-.53,1.93-2,1.65-13.73-2.73-27.57-5-41.42-7.11S527.87,275,514,273.31q-22.62-2.71-45.31-4.57c-14.06-1.13-28.17-2-42.27-2.85-21-1.26-42-1.68-63-2-1,0-2.12.33-2-1.49.67-10.49,1.25-21,1.81-31.49.08-1.41.16-1.92,2-1.8,10.1.63,17.78,6.18,25.18,12.18,2.52,2,5,3.49,8.27,3.39a14.25,14.25,0,0,1,4.46.53c6.6,2.09,11.93-1.49,17.52-3.81,2-.83,2.51-3.11,3.38-4.85,1.42-2.84,2.81-4.26,6.56-3.75,11.63,1.58,23.43,1.41,35.14,2.14a3,3,0,0,0,2.29-.37c4.87-3.76,9.76-7.49,14.72-11.28-2.16-2-4.21-3.79-6.19-5.67s-4.64-2.83-6.84-4.57c5.27-3.5,10.79-5.29,17.07-3.22a5.57,5.57,0,0,0,1.54.32c3.71.1,6.76,1,7,5.52.07,1.21.81,1.65,1.89,1.75.88.09,1.77.14,2.64.24,5.42.63,5.48.66,7.09-4.51.31-1,.66-1.51,1.74-1.41,3.48.31,7,.18,10.09,2.45a49.46,49.46,0,0,0,5.09,2.92,12.53,12.53,0,0,0,.88-2c1-4.58,4.34-7,8.13-9a3.49,3.49,0,0,1,2-.62c9.86.75,19.13-2.25,28.52-4.5,3.47-.83,4.33.13,3.13,3.49a14.78,14.78,0,0,1-7.15,8.32c-6.27,3.48-12.86,4.41-19.77,4.36-5.67,0-11.27,1-16.92,1.11-1.54,0-1.79.66-1.18,1.92,0,.08,0,.18.07.27,2.8,8.48,2.8,8.48,11.65,10.39,3.94.86,7.87,1.84,11.84,2.6,1.28.25,1.76.71,1.93,2a34.45,34.45,0,0,0,1.19,5.95c.51,1.64-.22,1.74-1.47,1.77-4.86.11-9.72.35-14.57.45-1.44,0-2.14.11-1.87,2,.68,4.86.54,4.82,5.45,4.92,4.51.09,9,.35,13.5.42,1.41,0,2,.43,1.59,1.84a4.72,4.72,0,0,0-.09,1.59,14.47,14.47,0,0,1-5.51,14,2.16,2.16,0,0,0-.44.63c0,.07,0,.17,0,.4,3.68.56,7.39,1.09,11.08,1.69,1.06.18,1.33-.36,1.64-1.21.73-2,.63-4.84,2.29-5.68,1.84-.95,4.46-.32,6.74-.38a4.28,4.28,0,0,1,.8,0c7.34,1.08,13.69-.84,18.89-6.25a2.62,2.62,0,0,1,3.1-.72c.48.19,1,.19,1.54.34,2.6.73,6.31.19,7.59,2.21s.36,5.3.38,8C598.85,273,598.78,278.7,598.86,284.35Z"/><path class="e1d77372-508c-45c7-8654-5871048bdbd9" d="M473.64,107.84c-1.23,0-1.52,1.1-2,1.87-2.87,4.45-6.41,8.4-9.52,12.68a2.39,2.39,0,0,1-3.38.85c-2.9-1.29-5.94-2.25-8.86-3.46-1.4-.58-2.44-.46-2.94,1-1.32,3.81-4.23,5.27-8,5.74a18.31,18.31,0,0,0-3.83,1,6.66,6.66,0,0,1-6.29-.73,16,16,0,0,0-1.65-.85c-4-2-4-2-7.44,1.15a59.36,59.36,0,0,1-7.29,6.1c-2.69,1.73-6.06,1.58-9.14,2.23-.92.2-1.08-.67-1.36-1.32-1.4-3.23-2.74-6.5-4.27-9.68-.86-1.8.41-2.49,1.45-3.14,4.88-3,8.19-7.41,11.05-12.22.26-.44.47-.91.77-1.49-4.27-1.35-8.35-2.71-12.49,0a10.39,10.39,0,0,1-1.72.66c-9.1,3.73-9.1,3.73-17.84-.53-4.6-2.24-4.71-2.28-6.39,2.52-.79,2.26-1.93,3.09-4.4,3.08-3.67,0-7.36.51-11,.87-1.35.13-2.35.09-2.81-1.56-.92-3.31-2-6.59-3.14-9.82-.54-1.51-.25-2.14,1.3-2.66A114.85,114.85,0,0,1,370.9,95.7,5.78,5.78,0,0,0,374.37,94c2.67-2.71,5.32-5.43,8.07-8.06,2-2,2-4.64,2.66-7,1.57-5.79,1.48-5.82,7.33-4.4,1.71.42,3.42.82,5.11,1.33,1.36.41,2.42.05,2.64-1.32.9-5.73,5.08-8.63,9.6-11.12,2.34-1.29,2.59-2.71,1.38-4.85-2-3.57-2.83-7.79-6.11-10.72-3.65-3.25-6.25-3.07-8.22,1.33-1.16,2.6-2.3,3-4.89,1.94a44.29,44.29,0,0,1-13.58-7.87c-3.88-3.42-9.21-3.91-14.19-4.22a114.42,114.42,0,0,0-14.8.27c-4.16.3-8.41-.45-12.6-.9-2.64-.29-3.9.35-4.33,3.32-.7,4.93-1,4.87-5.89,3.77-1.88-.42-3.8-.68-5.7-1-3.74-.72-5.68.45-6.06,4.25-.3,3-2.06,5.21-3.07,7.81-.41,1-1.27,1.09-2.19,1-4.31-.28-8.62-.43-12.91-.9-1.5-.17-2,.21-2.45,1.52-1.58,4.9-1.61,4.89,2.74,7.49a1.64,1.64,0,0,0,.22.14c3.52,1.34,4.87,3.48,3.88,7.48-.84,3.42-.27,3.62,3.18,2.46,5.84-2,5.84-2,8.68,3.72,1.24,2.48,5.45,4.8,8.16,4.56,1-.09,1.28-.89,1.7-1.5,2-3,4-6,5.89-9.11.8-1.34,1.44-1.37,2.69-.59a79.56,79.56,0,0,1,7.45,5,7.93,7.93,0,0,1,0,12.22c-2.46,2-4.93,4-7.29,6.11-1.13,1-2.16,1.45-3.54.67-.23-.13-.55-.11-.74-.26-5.22-4.25-10.33-2.32-15.38.31-1.38.71-3,.87-4.44,2.21,2.65,1,5.07,1.94,7.52,2.81,1.31.46,2,1.06,1.06,2.46a6.09,6.09,0,0,0-.35,1c-2.15,5.13-5.07,5.88-9.34,2.28a35.25,35.25,0,0,0-5-3.47c-1.21-.7-2.48-1.28-3.94-2-.29,2.43-.87,4.54-.69,6.74.12,1.51-.33,2.21-2.05,2.24s-3.94-.92-5.28.74a23.72,23.72,0,0,0-4.85,8.72c-.47,1.75.61,2.9,2,3.64,4.32,2.28,8.59,4.35,13.79,2.3,3.33-1.31,7-1.84,10.44-2.79,2.7-.73,4.34-3,6.22-4.78,2.81-2.63,5.68-4.26,9.64-3.71a13.28,13.28,0,0,0,4.72-.35c1.73-.4,2.34.42,1.61,2.07a14.5,14.5,0,0,1-3.68,5.11c-2,1.77-1.76,3.15.56,4.52,3.42,2,7.07,1.75,10.76,1.2a20.66,20.66,0,0,1,2.35-.29c3.76-.17,5.36,1.81,4.45,5.56a41.54,41.54,0,0,1-1.46,4.8c-.88,2.38-.27,4.52.86,6.6,1.38,2.55,2.8,2.77,5,.81a20.65,20.65,0,0,0,4.38-5.93c.76-1.43,1.47-1.86,2.8-.83a2.17,2.17,0,0,0,.7.38c7.08,2.07,7.16,8.21,8,13.87.48,3.13.62,3.26,3.36,1.92s5.26-2.52,7.84-3.88c1.65-.86,2.61-.57,3.12,1.29.84,3,2,6,2.55,9.15.35,2,1.26,2.36,3,2.38a41.29,41.29,0,0,0,10.44-1.4c3.52-.84,3.49-.84,3.69,2.62a39,39,0,0,0,.6,6c.4,1.81-.08,2.12-1.84,2.3-9,.94-18,.27-27,.44-4,.07-7.84,1-11.7,1.83-2.33.47-3.39,3-4.83,4.69-4,4.76-4,4.9-6.49-.48-1.2-2.62-2.44-4.09-5.55-2.92a12.59,12.59,0,0,1-4.42.63c-3.22,0-4.12,2.65-5.62,4.58-2.86,3.7-2.54,3.5.53,6.91s6.83,3.19,10.76,2.65c.17,0,.34-.14.51-.14,1.54,0,3.51-1.25,4.48.67,1.18,2.33-.25,5.34-2.21,6.72-5,3.47-10.58,4.66-16.41,5.06-2.94.2-4.73,2.13-6.8,3.7-1.81,1.38-3.53,2.89-5.5,4.52,2.38,1.17,4.88,1,7.21,1.24,2,.23,2.45,1,2.71,2.77.31,2-.18,4.27,1.53,5.92a19.27,19.27,0,0,0-2.83,1.21c-3.86,2.4-7.81,2.45-12.07,1.1-3.44-1.09-8.33.94-10.44,3.86a15,15,0,0,0-1.83,2.58c-1.77,3.95-4.9,4.27-8.7,3.84-7.36-.84-14.76-1.33-22.13-2a3.53,3.53,0,0,0-3.73,1.76c-1.91,2.86-4,5.58-6.08,8.34-.57.76-1,1.64-2.28,1.48-4.71-.6-9.52-.62-14.1-2.1-3-1-3.36-1.75-2.15-4.67a104.33,104.33,0,0,1,8.14-14.8c.81-1.3.88-2-.81-2.33a21.52,21.52,0,0,1-14.68-10.56,4.61,4.61,0,0,0-3.71-2.13c-8.27-1.12-16.67-1.78-24.2-6.3,5.41-1.23,10.91-2.22,16.26-3.75,6.5-1.87,13.09-1.59,19.69-1.53,1.61,0,2.59-.35,3.23-1.93,1.6-3.88,4.07-7.45,3.94-11.91-.15-5.07-2.52-7.48-7.6-7.32-7,.22-13.91.93-20.82,1.82a20.24,20.24,0,0,1-7.08-.54,3.3,3.3,0,0,1-2-1.15c-2.45-4.2-6.5-7-9.4-10.74-4.33-5.64-4.58-12.22-4.31-18.87.09-2.26,1.86-3,4-2.91a108,108,0,0,1,23.23,3.4,51.27,51.27,0,0,0,8.25,1.72c4.22.37,8.48.29,12.45-1.58a32.3,32.3,0,0,1,17.84-2.55c5.28.61,8.08-1.21,10.08-6.14,1.57-3.88,3.06-7.37,1.47-11.55-1.26-3.33-2.61-4.14-6-3.11A59.37,59.37,0,0,0,261,128.32a9.25,9.25,0,0,1-4.76,1.27,317.42,317.42,0,0,0-33.06,1.56c-1.86.2-2.86-.09-3.05-2.34a69.14,69.14,0,0,0-1.68-9.35,2.54,2.54,0,0,1,.66-2.61c3.62-3.91,7.25-7.69,12.92-8.65a18.44,18.44,0,0,0,6.37-2.47c2.62-1.57,3-3,1.61-5.7-.24-.47-.54-.91-.78-1.38-.61-1.2-2.18-2.32-1.25-3.74s2.59-.82,4-.78a57.86,57.86,0,0,1,11.26,1.44,3.21,3.21,0,0,0,3.68-1.18c2.21-2.75,4.73-5.27,6.84-8.09,1.84-2.48,4.32-3.48,7-4.65,5.09-2.18,9-2.15,12.1,3.13,1.08,1.84,2.67,4.63,4.41,4.56S290.4,86.54,292,85c1.14-1.11,2.31-2.19,3.48-3.26,1.53-1.39,1.74-3,.2-4.34-3.53-3.19-7.11-6.34-10.79-9.35a8.48,8.48,0,0,0-5.22-1.62c-7.67-.24-14.91-2.42-22.1-4.87a2.42,2.42,0,0,1-1.93-2.88,24.43,24.43,0,0,0-1.46-11.17,2.19,2.19,0,0,1,.33-2.41c2.92-4,5.73-8,7.22-12.83.34-1.1.9-1.14,2-.84,3.74,1.06,7.27,2.21,10,5.42s9.83,2.74,12.55-.54a32.42,32.42,0,0,0,2.11-2.72,60.65,60.65,0,0,1,17.85-17.39c3.46-2.28,7.28-3.05,11-4.13C329.53,8.53,342,5.26,354.05.91c1.57-.56,2.06-.09,2.55,1.34,1.06,3.06,1.13,3,3.93,1.26,1.93-1.21,3.9-2.34,5.84-3.51,1.07,1.93,2.18,3.83,3.2,5.78,1.92,3.69,5.74,5.39,8.49,8.21a1,1,0,0,0,1.22.16,9.6,9.6,0,0,1,1.47-.59c4.09-.92,6.62-3.26,7.15-7.56.22-1.69,1.11-2.13,2.93-1.88,4,.55,8.05.72,12.33,1.06a14.8,14.8,0,0,1-3.91,4.58c-1,.83-2.13,1.56-3.21,2.33-4.65,3.32-4.56,3.3-3.49,8.77.42,2.17,1.54,2.73,3.58,3.26,6.08,1.58,11.23-.76,16.4-3.23a3.36,3.36,0,0,1,4.21.57,33.49,33.49,0,0,0,8.77,5.35c1.44.62,2.8,1.41,4.26,2.17-.92,1.15-1.93.6-2.82.55a82.7,82.7,0,0,0-17.44.34c-2.58.4-3.55,1.29-3.79,4.11a18.48,18.48,0,0,0,2.09,10.1c.69,1.39,1.39,1.57,2.62,1.15l.26-.07c5.47-2.11,10.21-.78,14.29,3.19,1.41,1.37,2.46,1.2,4.31.53,5.24-1.9,6.21-6,6.16-10.61,0-2.29.77-3.68,2.92-4.33a1.82,1.82,0,0,0,.71-.35c4.6-3.81,9.32-2.74,14.25-.65,1.67.71,2,2,2.28,3.25.67,2.94,2.34,3.49,5.12,3.28,3.72-.27,7.06-.85,9.54-4a9.66,9.66,0,0,1,7.5-3.6c.22,2.61.42,5.28.68,7.95a1.73,1.73,0,0,1-1.33,2c-2.12.85-4.15,2-6.31,2.7S469,46,470,47.63c3.05,5.15,8,8.12,12.67,11.4,2.05,1.44,2.31,2.4.92,4.52-3.51,5.36-3.4,5.43-9.69,4.39-1-.17-2.09-.28-3.14-.4-1.49-.18-3.12-.8-4.43-.39-1.61.52-.8,2.62-1.36,3.94s-1.28,2-2.79,1.82c-2.37-.25-4.75-.34-7.13-.54-1.29-.12-2.08.3-2,1.71.34,5.15-2.4,7.32-7.18,8.26-4.35.85-4.29,1.18-2.29,5.18,2.35,4.7,2.36,4.76,7.75,3.94,2.34-.36,3.78-.21,3.34,2.79a6.56,6.56,0,0,0,1.4,4.72c1.51,2,3.33,1.89,4.49-.38.56-1.1,1-2.25,1.48-3.39a2.29,2.29,0,0,1,3.42-1.35c2.83,1.21,5.23,2.69,5.86,6.16A69.25,69.25,0,0,0,473.64,107.84Z"/><path class="a0a45137-e24a-4300-9299-23eba5368f45" d="M1.86,330.18l1.07.45c-.84.71-1.9.55-2.93.8A2.31,2.31,0,0,1,1.86,330.18Z"/><path class="e1d77372-508c-45c7-8654-5871048bdbd9" d="M451.82,139.17c.81,2.29,1.42,4.13,2.11,5.93.62,1.63,2,2.74,3.49,1.77,2.82-1.85,4.59-.45,6.67,1.22,3.15,2.52,3.19,2.37.31,5a139.42,139.42,0,0,0-11.33,11.86c-2.27,2.62-1.5,7,1.55,9.35a7.53,7.53,0,0,1,2.62,2.9c.89,2.1,1.38,4.13-.05,6.24a10.74,10.74,0,0,0-1.36,2.86c-.3,1-.4,2.42-1.61,2.4s-1.31-1.49-1.67-2.43c-2.65-6.93-4.19-7.57-10.72-4.35-.48.24-1,.45-1.42.73-1.43.87-3.2,1.49-4.17,2.73s.61,2.94.8,4.5c.34,2.74-3.31,6.44-6.75,6.58-4.5.18-6.44-1.12-8.09-5.44-.63-1.64-1.42-2.69-3.54-2.13-1.41.38-3,0-4.48.23-1.66.27-2.94-.08-3.27-1.76a3.79,3.79,0,0,1,1.73-4.33,6.74,6.74,0,0,0,2-9.81,1.84,1.84,0,0,0-2.51-.71,3.12,3.12,0,0,1-3.85-.82c-1-1.51.19-3.21.69-4.76a2.5,2.5,0,0,1,2.9-1.78,8.21,8.21,0,0,1,1.57.18c1.48.41,2.16-.17,1.71-1.58-.78-2.48.64-3.37,2.57-4a12.61,12.61,0,0,1,5.76-.23c1.4.17,2.07.91,2,2.51-.09,3,3.35,6.87,6.16,7.26,1.43.19,2-.76,1.93-1.91a19.67,19.67,0,0,0-.7-3.61c-1-4.35.2-7,4.14-9.13,1.22-.65,2.87-1.11,2.71-2.87a8.22,8.22,0,0,0-2.62-4.74c-.57-.6-1.3-.22-2,0a26.3,26.3,0,0,0-6.71,3.08,4.52,4.52,0,0,1-6.36-.84c-3-3.92-3.1-5.34-.78-7.81a2.45,2.45,0,0,1,3.48-.5c2.35,1.37,4.51,3.07,7.1,4.08a4,4,0,0,0,4.8-.88c.66-.7,1.48-1.75,2.39-1.39,1.18.47.6,1.88.67,2.88a12.63,12.63,0,0,0,.46,3.66c.39,1.06.86,1.95,2.09,2.12a2.56,2.56,0,0,0,2.64-1.4c1.53-2.47,3-5,4.56-7.44C450.15,141.49,450.89,140.51,451.82,139.17Z"/><path class="e1d77372-508c-45c7-8654-5871048bdbd9" d="M401,213.45a28.31,28.31,0,0,1-10.16-1.33c-1.75-.54-3.83-1-5.43.74a2.58,2.58,0,0,0-.9,2.59c.33.87,1.38,1,2.27,1.07,1.67.06,3.35,0,5,.07,2.6.09,4.3,1.21,4.43,4a4.75,4.75,0,0,0,.05.53c.75,4.42,1.16,4.67,5.2,2.63,3.4-1.71,6.7-.53,10,.16a1.27,1.27,0,0,1,1.06,1.59c-.34,1.34-.5,2.82-2.25,3.26-2.22.55-4.41,1.22-6.62,1.82-1.26.35-2.4.66-1.72,2.48.42,1.12-.33,1.55-1.43,1.56-3.26,0-6.35-.16-9.46-1.71-5-2.48-9.8-5.13-14.65-7.79-2.82-1.54-5.88-.83-8.8-1.38-2-.38-2-.65-.9-2.5,2.64-4.37,6.7-5.63,11.23-6.24a11.13,11.13,0,0,0,7-3.83c1.37-1.49,1.36-2.19-.57-2.94-5.5-2.13-10.93-4.45-16.47-6.47-2.18-.8-2.66-1.76-1.8-3.9,2.24-5.55.56-4.63,6.53-4.58,3.24,0,6.46-.48,9.71-.18,2,.18,2.51,1.29,2.76,2.89a10.55,10.55,0,0,0,8,8.56c1.8.36,3.16-.92,4.47-1.88,1.09-.81,2.15-1.4,3.35-.61s.42,1.87.22,2.88c-.55,2.77.57,4.17,3.39,4.16,1.64,0,3.08,0,2.89,2.3-.11,1.41-.41,2.34-2.2,2.06A28.41,28.41,0,0,0,401,213.45Z"/><path class="116c29d4-d9e0-4ec4-9298-fa7244b71ee4" d="M436.7,205.79c1.51.6,3-1.08,4.18.43.49.61,1.21,1.08.93,2-1,3.19-6.13,5.24-8.92,3.59a4.73,4.73,0,0,1-1.85-2.16c-.61-1.3-.72-2.32,1.1-2.67C433.75,206.68,435.19,205.65,436.7,205.79Z"/><path class="fd66434c-8ed4-4106-9347-6058196f304c" d="M76.89,418.89H57.45l-5.08-14.76h-27l-5.09,14.76H1.3l27-73H49.93Zm-29-28.14-9-26.15-9,26.15Z"/><path class="fd66434c-8ed4-4106-9347-6058196f304c" d="M163.91,418.89H145.18V370l-13.53,31.72h-13L105.13,370v48.88H87.38v-73h21.87l16.42,36.62,16.38-36.62h21.86Z"/><path class="fd66434c-8ed4-4106-9347-6058196f304c" d="M269.16,360H235.58v13.58h31.13v14.12H235.58v31.18H216.86v-73h52.3Z"/><path class="fd66434c-8ed4-4106-9347-6058196f304c" d="M335,418.89H282.16v-73H335V360H300.88v12.6H332.5v14.12H300.88v18H335Z"/><path class="fd66434c-8ed4-4106-9347-6058196f304c" d="M421,418.89H398l-19.85-26.77h-8.72v26.77H350.74v-73h31.57a72.61,72.61,0,0,1,11.13.74,24.06,24.06,0,0,1,8.72,3.18,19.07,19.07,0,0,1,6.55,6.35,18.18,18.18,0,0,1,2.42,9.78q0,8.08-3.75,13.19a28.33,28.33,0,0,1-10.71,8.48Zm-29.37-50.64a9.23,9.23,0,0,0-1.13-4.71,7.52,7.52,0,0,0-3.87-3.09,14.18,14.18,0,0,0-4.46-.95c-1.7-.12-3.67-.18-5.93-.18h-6.81V379h5.78a53.06,53.06,0,0,0,7.55-.44,10.71,10.71,0,0,0,5.1-2,9.74,9.74,0,0,0,2.87-3.36A11.26,11.26,0,0,0,391.67,368.25Z"/><path class="fd66434c-8ed4-4106-9347-6058196f304c" d="M505.8,418.89H487.07V370l-13.53,31.72h-13L447,370v48.88H429.27v-73h21.87l16.42,36.62,16.38-36.62H505.8Z"/><path class="fd66434c-8ed4-4106-9347-6058196f304c" d="M563.89,418.89H521.14V405.94h12V358.83h-12V345.89h42.75v12.94h-12v47.11h12Z"/><path class="fd66434c-8ed4-4106-9347-6058196f304c" d="M645.62,418.89H627.48l-31-50.1v50.1H579.24v-73h22.5l26.62,41.82V345.89h17.26Z"/><path class="fd66434c-8ed4-4106-9347-6058196f304c" d="M735.23,382.41q0,17.46-10,27.73t-27.65,10.27q-17.6,0-27.6-10.27t-10-27.73q0-17.6,10-27.82t27.6-10.22q17.55,0,27.6,10.22T735.23,382.41Zm-25,18.49a22.06,22.06,0,0,0,4.07-7.87,38.42,38.42,0,0,0,1.32-10.67,36,36,0,0,0-1.52-11.17,21.67,21.67,0,0,0-4-7.45,14.81,14.81,0,0,0-5.76-4.27,18.32,18.32,0,0,0-13.53-.05,15.76,15.76,0,0,0-5.81,4.22,20.64,20.64,0,0,0-4,7.57,36.84,36.84,0,0,0-1.54,11.2,36,36,0,0,0,1.5,11.11A21.87,21.87,0,0,0,685,401a15.19,15.19,0,0,0,5.74,4.27,17.82,17.82,0,0,0,6.91,1.37,17.32,17.32,0,0,0,6.91-1.4A15.15,15.15,0,0,0,710.28,400.9Z"/><path class="e1d77372-508c-45c7-8654-5871048bdbd9" d="M32.76,485.92a9.64,9.64,0,0,1-1,4.2A9.93,9.93,0,0,1,29,493.64a14.92,14.92,0,0,1-4.55,2.44,19.52,19.52,0,0,1-6.26.88,31.1,31.1,0,0,1-7.07-.73,35.52,35.52,0,0,1-6.39-2.18V488h.35a20,20,0,0,0,6.37,3.54,20.87,20.87,0,0,0,6.79,1.24,12.46,12.46,0,0,0,7-1.68,5.17,5.17,0,0,0,2.5-4.49A4.79,4.79,0,0,0,26.55,483a8.18,8.18,0,0,0-3.6-1.78,37.09,37.09,0,0,0-4-.8c-1.42-.22-2.93-.48-4.53-.81q-4.83-1-7.16-3.5a9.55,9.55,0,0,1,1.52-13.94,15.75,15.75,0,0,1,9.79-2.92,31.36,31.36,0,0,1,7,.73,32.34,32.34,0,0,1,5.67,1.81v5.71H31a17.11,17.11,0,0,0-5.46-2.92,21.29,21.29,0,0,0-6.92-1.16,10.89,10.89,0,0,0-6.24,1.61A4.87,4.87,0,0,0,10,469.23a5.07,5.07,0,0,0,1.18,3.56,8,8,0,0,0,4.12,2c1,.23,2.52.5,4.44.83s3.55.66,4.89,1a12.6,12.6,0,0,1,6.1,3.25A8.46,8.46,0,0,1,32.76,485.92Z"/><path class="e1d77372-508c-45c7-8654-5871048bdbd9" d="M74.23,464.12a16.58,16.58,0,0,1,3.4,6,27.76,27.76,0,0,1,0,16.08,16.65,16.65,0,0,1-3.38,5.92,14.39,14.39,0,0,1-5.32,3.71,20,20,0,0,1-14,0,14.43,14.43,0,0,1-5.33-3.69,16.49,16.49,0,0,1-3.39-5.93,27.82,27.82,0,0,1,0-16,16.92,16.92,0,0,1,3.42-6.05A14.11,14.11,0,0,1,55,460.46a19.77,19.77,0,0,1,14,0A14.75,14.75,0,0,1,74.23,464.12Zm-.44,14q0-7.08-3.18-10.93a10.63,10.63,0,0,0-8.67-3.84,10.67,10.67,0,0,0-8.7,3.84q-3.16,3.84-3.16,10.93t3.22,10.95a10.76,10.76,0,0,0,8.64,3.79,10.74,10.74,0,0,0,8.64-3.79Q73.79,485.3,73.79,478.14Z"/><path class="e1d77372-508c-45c7-8654-5871048bdbd9" d="M116.08,496.3h-23V460h4.83V492h18.17Z"/><path class="e1d77372-508c-45c7-8654-5871048bdbd9" d="M154.88,481.7a24.43,24.43,0,0,1-.87,6.9,11.05,11.05,0,0,1-2.84,4.89,11.37,11.37,0,0,1-4.39,2.71,18.22,18.22,0,0,1-5.86.86,17.57,17.57,0,0,1-6-.91,11.1,11.1,0,0,1-4.27-2.66,11.54,11.54,0,0,1-2.85-4.83,24,24,0,0,1-.86-7V460h4.83v22a21.26,21.26,0,0,0,.4,4.67,9.1,9.1,0,0,0,1.36,3.1,6.65,6.65,0,0,0,2.91,2.39,11,11,0,0,0,4.44.81,11.12,11.12,0,0,0,4.44-.8,6.7,6.7,0,0,0,2.93-2.4,9,9,0,0,0,1.35-3.19,20.55,20.55,0,0,0,.41-4.45V460h4.83Z"/><path class="e1d77372-508c-45c7-8654-5871048bdbd9" d="M198.79,493.66c-.9.39-1.71.76-2.43,1.1a25.86,25.86,0,0,1-2.85,1.08l-.58.18a5.7,5.7,0,0,1-.76.18c0,.31.06.67.08,1.09s0,.81,0,1.18a7.83,7.83,0,0,1-2.28,6.06,8.33,8.33,0,0,1-5.87,2.1,22.12,22.12,0,0,1-2.38-.17,18.29,18.29,0,0,1-2.55-.47V502h.22c.42.16,1,.35,1.74.58a7.82,7.82,0,0,0,2.33.35,6,6,0,0,0,3.79-1,3.77,3.77,0,0,0,1.19-3.08c0-.31,0-.64,0-1s0-.71-.07-1l-1,.08-1,0a22.09,22.09,0,0,1-7.19-1.11,14.74,14.74,0,0,1-5.63-3.48,15.91,15.91,0,0,1-3.66-5.9,26.42,26.42,0,0,1,0-16.34,16.17,16.17,0,0,1,3.67-6,15.26,15.26,0,0,1,5.6-3.62,20.43,20.43,0,0,1,7.29-1.24,24.24,24.24,0,0,1,5.84.71,31,31,0,0,1,6.49,2.49v5.73h-.37a21.79,21.79,0,0,0-6-3.66,17.39,17.39,0,0,0-6.32-1.15,13.06,13.06,0,0,0-5,.9,10.69,10.69,0,0,0-3.94,2.77,12.66,12.66,0,0,0-2.63,4.62,20.49,20.49,0,0,0-.94,6.46,18.75,18.75,0,0,0,1,6.59,13.15,13.15,0,0,0,2.67,4.49,10.57,10.57,0,0,0,4,2.68,13.41,13.41,0,0,0,4.82.86,17.67,17.67,0,0,0,6.54-1.19,18.62,18.62,0,0,0,5.71-3.59h.35Z"/><path class="e1d77372-508c-45c7-8654-5871048bdbd9" d="M239.32,464.12a16.6,16.6,0,0,1,3.41,6,25.28,25.28,0,0,1,1.18,8,24.79,24.79,0,0,1-1.21,8,16.35,16.35,0,0,1-3.38,5.92,14.43,14.43,0,0,1-5.31,3.71,20,20,0,0,1-14,0,14.46,14.46,0,0,1-5.34-3.69,16.62,16.62,0,0,1-3.38-5.93,27.82,27.82,0,0,1,0-16,16.92,16.92,0,0,1,3.42-6.05,14.11,14.11,0,0,1,5.33-3.66,19.77,19.77,0,0,1,14,0A14.71,14.71,0,0,1,239.32,464.12Zm-.44,14q0-7.08-3.17-10.93a11.74,11.74,0,0,0-17.37,0q-3.17,3.84-3.16,10.93t3.22,10.95a11.73,11.73,0,0,0,17.27,0Q238.88,485.3,238.88,478.14Zm-2.07-30.47a9.53,9.53,0,0,1-1.88,5.59,5.43,5.43,0,0,1-4.32,1.88,6.19,6.19,0,0,1-2.45-.48,7.28,7.28,0,0,1-2.12-1.38,16.91,16.91,0,0,0-1.94-1.57,3.11,3.11,0,0,0-1.75-.53,2.07,2.07,0,0,0-1.9,1.1,6.59,6.59,0,0,0-.73,3h-3.2a8.63,8.63,0,0,1,1.93-5.57,5.56,5.56,0,0,1,4.25-1.88,6,6,0,0,1,2.35.48,7.78,7.78,0,0,1,2.16,1.35,12.67,12.67,0,0,0,2,1.5,3.4,3.4,0,0,0,1.7.5,2.17,2.17,0,0,0,1.94-1.12,5.82,5.82,0,0,0,.77-2.83Z"/><path class="e1d77372-508c-45c7-8654-5871048bdbd9" d="M282.13,496.3H258.18V460h23.95v4.29H263v10h19.12v4.29H263V492h19.12Z"/><path class="e1d77372-508c-45c7-8654-5871048bdbd9" d="M322.81,485.92a9.64,9.64,0,0,1-1,4.2,9.93,9.93,0,0,1-2.77,3.52,14.92,14.92,0,0,1-4.55,2.44,19.59,19.59,0,0,1-6.27.88,31,31,0,0,1-7.06-.73,35.26,35.26,0,0,1-6.39-2.18V488h.34a20.13,20.13,0,0,0,6.38,3.54,20.82,20.82,0,0,0,6.78,1.24,12.47,12.47,0,0,0,7-1.68,5.17,5.17,0,0,0,2.5-4.49A4.79,4.79,0,0,0,316.6,483a8.18,8.18,0,0,0-3.6-1.78,37.6,37.6,0,0,0-4-.8c-1.43-.22-2.94-.48-4.53-.81a13.44,13.44,0,0,1-7.17-3.5,9.08,9.08,0,0,1-2.33-6.46,9,9,0,0,1,3.86-7.48,15.73,15.73,0,0,1,9.79-2.92,31.42,31.42,0,0,1,7,.73,32,32,0,0,1,5.66,1.81v5.71H321a16.94,16.94,0,0,0-5.45-2.92,21.35,21.35,0,0,0-6.93-1.16,10.88,10.88,0,0,0-6.23,1.61,4.87,4.87,0,0,0-2.36,4.16,5.11,5.11,0,0,0,1.17,3.56,8,8,0,0,0,4.13,2c1,.23,2.52.5,4.44.83s3.55.66,4.89,1a12.6,12.6,0,0,1,6.1,3.25A8.46,8.46,0,0,1,322.81,485.92Z"/><path class="e1d77372-508c-45c7-8654-5871048bdbd9" d="M390,496.3h-5.15l-3.56-10.13H365.58L362,496.3H357.1L370.34,460h6.44ZM379.81,482l-6.37-17.85L367,482Z"/><path class="e1d77372-508c-45c7-8654-5871048bdbd9" d="M434.5,496.3h-4.83V465l-10.11,21.31h-2.88l-10-21.31V496.3h-4.52V460h6.59l9.69,20.24L427.79,460h6.71Z"/><path class="e1d77372-508c-45c7-8654-5871048bdbd9" d="M478.29,485.12a10.67,10.67,0,0,1-1,4.78,9.49,9.49,0,0,1-2.76,3.42,12.82,12.82,0,0,1-4.5,2.3,24.07,24.07,0,0,1-6.24.68H450.87V460h10.77a45.24,45.24,0,0,1,5.95.29,12.27,12.27,0,0,1,3.79,1.22,6.76,6.76,0,0,1,2.9,2.7,8.11,8.11,0,0,1,.91,3.94,7.29,7.29,0,0,1-1.32,4.41,9.57,9.57,0,0,1-3.52,2.92v.19a10,10,0,0,1,5.81,3.24A9.26,9.26,0,0,1,478.29,485.12Zm-8.13-16.38a5.08,5.08,0,0,0-.44-2.22,3.46,3.46,0,0,0-1.42-1.47,6.89,6.89,0,0,0-2.78-.82c-1.09-.1-2.44-.16-4.06-.16H455.7v10.5H462a22.87,22.87,0,0,0,3.62-.23,6.83,6.83,0,0,0,2.49-1,4.07,4.07,0,0,0,1.62-1.9A7.1,7.1,0,0,0,470.16,468.74Zm3.1,16.57a7.78,7.78,0,0,0-.66-3.49,5.31,5.31,0,0,0-2.39-2.19,8,8,0,0,0-2.85-.8,38.73,38.73,0,0,0-4.06-.18h-7.6v13.52h6.4a34.94,34.94,0,0,0,5.2-.32,8.43,8.43,0,0,0,3.32-1.21,6.12,6.12,0,0,0,2-2.18A6.83,6.83,0,0,0,473.26,485.31Z"/><path class="e1d77372-508c-45c7-8654-5871048bdbd9" d="M504.56,496.3H490.21v-3.71H495V463.66h-4.76V460h14.35v3.71H499.8v28.93h4.76Z"/><path class="e1d77372-508c-45c7-8654-5871048bdbd9" d="M543.34,496.3h-24V460h24v4.29H524.23v10h19.11v4.29H524.23V492h19.11Z"/><path class="e1d77372-508c-45c7-8654-5871048bdbd9" d="M585.34,496.3h-6l-17.24-32.52V496.3h-4.51V460h7.49l15.73,29.69V460h4.51Z"/><path class="e1d77372-508c-45c7-8654-5871048bdbd9" d="M627.54,464.24h-13V496.3h-4.83V464.24h-13V460h30.81Z"/><path class="e1d77372-508c-45c7-8654-5871048bdbd9" d="M664.75,496.3H659.6L656,486.17H640.31l-3.56,10.13h-4.91L645.08,460h6.44ZM654.55,482l-6.37-17.85L641.78,482Z"/><path class="e1d77372-508c-45c7-8654-5871048bdbd9" d="M689.69,496.3H675.33v-3.71h4.76V463.66h-4.76V460h14.36v3.71h-4.76v28.93h4.76Z"/><path class="e1d77372-508c-45c7-8654-5871048bdbd9" d="M730.93,485.92a9.64,9.64,0,0,1-1,4.2,9.93,9.93,0,0,1-2.77,3.52,14.92,14.92,0,0,1-4.55,2.44,19.57,19.57,0,0,1-6.26.88,31.1,31.1,0,0,1-7.07-.73,35.52,35.52,0,0,1-6.39-2.18V488h.35a20,20,0,0,0,6.37,3.54,20.87,20.87,0,0,0,6.79,1.24,12.46,12.46,0,0,0,7-1.68,5.17,5.17,0,0,0,2.5-4.49,4.79,4.79,0,0,0-1.18-3.57,8.18,8.18,0,0,0-3.6-1.78,37.09,37.09,0,0,0-4-.8c-1.42-.22-2.93-.48-4.53-.81q-4.83-1-7.16-3.5A9.55,9.55,0,0,1,707,462.21a15.75,15.75,0,0,1,9.79-2.92,31.36,31.36,0,0,1,7,.73,32.34,32.34,0,0,1,5.67,1.81v5.71h-.35a16.94,16.94,0,0,0-5.45-2.92,21.29,21.29,0,0,0-6.92-1.16,10.89,10.89,0,0,0-6.24,1.61,4.87,4.87,0,0,0-2.36,4.16,5.07,5.07,0,0,0,1.18,3.56,8,8,0,0,0,4.12,2c1,.23,2.52.5,4.44.83s3.55.66,4.89,1a12.6,12.6,0,0,1,6.1,3.25A8.46,8.46,0,0,1,730.93,485.92Z"/></g></g></svg>